<svg xmlns="http://www.w3.org/2000/svg" viewBox="0 0 1084 263"><defs><style>.a{fill:#073b4c;}.b{fill:#118ab2;}.c{fill:#06d6a0;}.d{fill:#ef476f;}</style></defs><title>logo</title><path class="a" d="M220.18,38.87Q220.18,17,244.5,17t24.31,21.83q0,10.4-6.08,16.18T244.5,60.84Q220.17,60.84,220.18,38.87ZM266.76,245H222.08V81.2h44.68Z"/><path class="a" d="M415.27,196.34q0,25.2-17.51,38.38T345.39,247.9a163.77,163.77,0,0,1-30.47-2.42,114.7,114.7,0,0,1-23.58-7.1V201.47a156.46,156.46,0,0,0,28.05,9.81q15.6,4,27.47,4,24.31,0,24.31-14.07A11.74,11.74,0,0,0,368,192.6q-3.22-3.28-11.13-7.47t-21.1-9.74q-18.89-7.9-27.75-14.65a41.26,41.26,0,0,1-12.9-15.45q-4-8.72-4-21.46,0-21.83,16.92-33.77t48-11.93A136.13,136.13,0,0,1,413.51,91L400,123.24q-12.3-5.26-23-8.64a72.38,72.38,0,0,0-21.82-3.37q-19.79,0-19.78,10.69,0,6,6.37,10.41t27.91,13q19.19,7.77,28.12,14.5A43,43,0,0,1,411,175.39Q415.27,184.18,415.27,196.34Z"/><path class="a" d="M583.5,245H538.82V149.32q0-17.73-5.93-26.59t-18.68-8.86q-17.13,0-24.9,12.6t-7.76,41.45V245H436.87V81.2H471l6,21h2.5a45.37,45.37,0,0,1,19-17.65Q511,78.13,527.1,78.13q36.76,0,49.81,24h4a44.36,44.36,0,0,1,19.41-17.73,64.87,64.87,0,0,1,28.93-6.29q27.84,0,42.12,14.28t14.28,45.77V245H640.77V149.32q0-17.73-5.93-26.59t-18.67-8.86q-16.41,0-24.54,11.72t-8.13,37.2Z"/><path class="a" d="M714.09,38.87Q714.09,17,738.41,17t24.32,21.83q0,10.4-6.08,16.18t-18.24,5.79Q714.1,60.84,714.09,38.87ZM760.68,245H716V81.2h44.68Z"/><path class="a" d="M861.54,212.31q11.73,0,28.13-5.13v33.25q-16.7,7.47-41,7.47-26.8,0-39-13.55T797.38,193.7V114.75H776V95.85l24.61-14.94L813.5,46.34h28.56V81.2h45.85v33.55H842.06V193.7q0,9.53,5.35,14.06T861.54,212.31Z"/><path class="a" d="M1059.94,245h-44.68V149.32q0-35.44-26.37-35.45-18.75,0-27.1,12.74t-8.35,41.31V245H908.77V17h44.67V63.48q0,5.42-1,25.49l-1,13.18h2.35q14.94-24,47.46-24,28.84,0,43.8,15.52t14.94,44.53Z"/><polygon class="b" points="24.23 31 188.77 31 188.77 60 183.4 68 24.23 68 24.23 31"/><polygon class="c" points="131.77 68 183.4 68 80.15 207 27.45 207 131.77 68"/><polygon class="d" points="192 207 192 245 21 245 21 216 27.45 207 192 207"/></svg>